<svg xmlns="http://www.w3.org/2000/svg" viewBox="0 0 1919.98 462.57"><defs><style>.cls-1{fill:#da0e0a;}.cls-2{fill:#06060c;opacity:0.1;}</style></defs><g id="katman_2" data-name="katman 2"><g id="katman_1-2" data-name="katman 1"><g id="_10" data-name="10"><g id="kırmızı_yan_logo" data-name="kırmızı yan logo"><g id="kırmızı_amblem" data-name="kırmızı amblem"><g id="kırmızı_b_harfi" data-name="kırmızı b harfi"><path class="cls-1" d="M194.08,204.86,79.8,319.08,0,239.23,114.27,125a56.09,56.09,0,0,1,79.32,0l.51.51A56.09,56.09,0,0,1,194.08,204.86Z"/><path class="cls-1" d="M365.35,300A62.35,62.35,0,0,1,347,344.13L230.45,460.65a6.53,6.53,0,0,1-9.25,0L142.1,381.5a6.53,6.53,0,0,1,0-9.25L258.67,255.73A62.51,62.51,0,0,1,365.35,300Z"/><path class="cls-1" d="M460.72,310.3c4.78-54.66-20.9-106.35-65.54-131.86C344.89,149.68,293,167,284.71,169.85c3.93-12,14.05-48.27-2.83-84.81C260.39,38.51,203.94,10.56,142.2,18.72,200.89-13.77,268.67-2.12,301.85,39.43c30.93,38.75,20.28,89.1,18.5,96.93,54.69-16.42,112.51,4.89,140.4,49.93C483.55,223.13,483.32,271,460.72,310.3Z"/></g><g id="gölge"><path class="cls-2" d="M203.2,139.22c-59.72-19.54-189.72,85.95-189.72,85.95l.24-.82,99.53-99.48a56.09,56.09,0,0,1,79.32,0l.51.51A55.78,55.78,0,0,1,203.2,139.22Z"/><path class="cls-2" d="M364.18,295.71l-.84-1.38c-39.63-65.42-173.48,35.41-205,60.56l99.34-99.29a62.49,62.49,0,0,1,106.54,40.11Z"/></g></g><g id="kırmızı_buffelist" data-name="kırmızı buffelist"><path class="cls-1" d="M651.81,342.8q-18.64,0-37.62-1.19A175.54,175.54,0,0,1,581,336.69l0-228.09q7.46-1.35,15.93-2.53t17.29-1.86q8.81-.67,17.45-1t16.44-.33a228.74,228.74,0,0,1,39.65,3.23q18.3,3.22,31.68,10.68a55.55,55.55,0,0,1,20.84,19.66q7.46,12.21,7.45,30.17,0,16.6-8,28.46t-22.2,19q21.35,7.11,31.51,21t10.16,35.25q0,36.26-26.45,54.38T651.81,342.8ZM623,200.8H653.2q24.4,0,38.3-6.93T705.4,169q0-17-14.4-24.07t-37.45-7.12q-9.82,0-17.45.33t-13.05,1Zm0,33.55,0,71.51q7.11.67,15.25,1t14.91.34a166.78,166.78,0,0,0,24.57-1.69,63.73,63.73,0,0,0,19.66-5.92,35.25,35.25,0,0,0,13.22-11.35q4.9-7.12,4.92-18.3,0-20-14.57-27.8t-40.33-7.8Z"/><path class="cls-1" d="M947,334.74q-11.87,3.06-30.84,6.27a250.64,250.64,0,0,1-41.68,3.21q-21.36,0-35.76-6.11t-23-16.95a66.62,66.62,0,0,1-12.36-25.93,137.43,137.43,0,0,1-3.72-33.05l0-99.3h41l0,92.86q0,28.47,8.29,40.67t29,12.21q7.46,0,15.76-.67A84.16,84.16,0,0,0,906,306.27l0-143.36h41Z"/><path class="cls-1" d="M1071.43,77.21a110.89,110.89,0,0,1,25.08,2.54,144.9,144.9,0,0,1,16.27,4.58l-7.8,33.89a65.5,65.5,0,0,0-13.39-4.41,76.26,76.26,0,0,0-16.44-1.7,42.6,42.6,0,0,0-16.6,2.88,27.08,27.08,0,0,0-10.85,8,30.65,30.65,0,0,0-5.77,12.37,69.56,69.56,0,0,0-1.69,15.76v11.86l64.4,0v34.23l-64.39,0,0,143h-41l.05-189.79q0-34.23,18-53.71T1071.43,77.21Zm136.92,0a110.28,110.28,0,0,1,25.08,2.55,140.69,140.69,0,0,1,16.27,4.58l-7.81,33.89a64,64,0,0,0-13.38-4.41,75.77,75.77,0,0,0-16.44-1.7q-9.83,0-16.61,2.88a27.12,27.12,0,0,0-10.84,8,30.46,30.46,0,0,0-5.77,12.37,70,70,0,0,0-1.7,15.75V163h64.39v34.23l-64.4,0,0,143h-41l.05-189.78q0-34.23,18-53.72T1208.35,77.24Z"/><path class="cls-1" d="M1258.46,252.47q0-23.39,7-41t18.48-29.31a76.52,76.52,0,0,1,26.44-17.62,82.12,82.12,0,0,1,30.5-5.92q36.6,0,57.1,22.72t20.49,67.79q0,3.39-.17,7.62t-.51,7.63l-116.93,0q1.7,21.35,15.08,33.05t38.8,11.7a127.44,127.44,0,0,0,27.28-2.71,112.22,112.22,0,0,0,19.49-5.75l5.41,33.55a65.44,65.44,0,0,1-9.32,3.56,130.58,130.58,0,0,1-13.55,3.38q-7.63,1.53-16.44,2.54a156.15,156.15,0,0,1-18,1q-23.38,0-40.67-7t-28.46-19.32a79.1,79.1,0,0,1-16.6-29.15A118.88,118.88,0,0,1,1258.46,252.47Zm119-18.27a53.92,53.92,0,0,0-2.36-16.1,39,39,0,0,0-7-13.22,32.84,32.84,0,0,0-11.18-8.82,35.76,35.76,0,0,0-15.76-3.22,36.74,36.74,0,0,0-16.61,3.55,38,38,0,0,0-12,9.32,42.59,42.59,0,0,0-7.63,13.22,71.52,71.52,0,0,0-3.73,15.25Z"/><path class="cls-1" d="M1523.46,343.7q-18.3-.34-30.33-4.08T1474,328.94a37.76,37.76,0,0,1-10-17.28,88,88,0,0,1-2.87-23.56l.05-204,41-6.77,0,203a56.31,56.31,0,0,0,1.18,12.54,19.93,19.93,0,0,0,4.24,8.64,19,19,0,0,0,8.3,5.42,64.47,64.47,0,0,0,13.38,2.89Z"/><path class="cls-1" d="M1608.25,111.23q0,11.52-7.46,18.3a25.35,25.35,0,0,1-17.63,6.77,25.76,25.76,0,0,1-18-6.78q-7.46-6.78-7.45-18.3,0-11.86,7.46-18.64a25.71,25.71,0,0,1,18-6.77,25.34,25.34,0,0,1,17.63,6.78Q1608.24,99.37,1608.25,111.23Zm-4.46,229.1h-41l0-177.25h41Z"/><path class="cls-1" d="M1700.38,310.87q16.26,0,23.72-3.89t7.46-13.39q0-8.8-8-14.57t-26.26-12.55a206.39,206.39,0,0,1-20.5-8.65,69.78,69.78,0,0,1-16.1-10.68,43.59,43.59,0,0,1-10.67-14.74q-3.9-8.64-3.89-21.18,0-24.4,18-38.47T1713,158.7a150.19,150.19,0,0,1,29.83,2.89q14.23,2.9,21.35,5.6l-7.47,33.21a100.42,100.42,0,0,0-17.28-5.6,105.27,105.27,0,0,0-24.4-2.55q-12.54,0-20.34,4.24a13.89,13.89,0,0,0-7.79,13,18.63,18.63,0,0,0,1.52,7.8,16.67,16.67,0,0,0,5.25,6.27,53.54,53.54,0,0,0,9.83,5.76,151.86,151.86,0,0,0,14.91,5.94A228,228,0,0,1,1743.09,246a67.15,67.15,0,0,1,16.78,11.86,40.63,40.63,0,0,1,9.65,15.09q3.06,8.47,3,20.33,0,25.42-18.82,38.46t-53.72,13q-23.38,0-37.62-3.91a195.52,195.52,0,0,1-20-6.27l7.12-34.23a184.18,184.18,0,0,0,21.86,7.12A112.68,112.68,0,0,0,1700.38,310.87Z"/><path class="cls-1" d="M1808.87,116.36l41-6.77,0,53.55,63,0v34.23l-63,0,0,72.19q0,21.35,6.77,30.5t23,9.16a75.18,75.18,0,0,0,19.83-2.37,135.5,135.5,0,0,0,13.73-4.4L1920,335a152.58,152.58,0,0,1-18.64,6.27,101.79,101.79,0,0,1-27.12,3.21q-19,0-31.69-5.09a46.74,46.74,0,0,1-20.16-14.75,58.51,58.51,0,0,1-10.5-23.38,145.54,145.54,0,0,1-3-31.35Z"/></g></g></g></g></g></svg>